HIERARCHY
ROOT Hips
{
	OFFSET 0.00000 0.00000 0.00000
	CHANNELS 6 Xposition Yposition Zposition Zrotation Yrotation Xrotation 
	JOINT LHipJoint
	{
		OFFSET 0 0 0
		CHANNELS 3 Zrotation Yrotation Xrotation
		JOINT LeftHip
		{
			OFFSET 1.62964 -1.40469 0.78906
			CHANNELS 3 Zrotation Yrotation Xrotation
			JOINT LeftKnee
			{
				OFFSET 2.29640 -6.30932 0.00000
				CHANNELS 3 Zrotation Yrotation Xrotation
				JOINT LeftAnkle
				{
					OFFSET 2.29451 -6.30412 0.00000
					CHANNELS 3 Zrotation Yrotation Xrotation
					JOINT LeftToe
					{
						OFFSET 0.03611 -0.09921 1.56387
						CHANNELS 3 Zrotation Yrotation Xrotation
						End Site
						{
							OFFSET 0.00000 -0.00000 0.80291
						}
					}
				}
			}
		}
	}
	JOINT RHipJoint
	{
		OFFSET 0 0 0
		CHANNELS 3 Zrotation Yrotation Xrotation
		JOINT RightHip
		{
			OFFSET -1.73712 -1.40469 0.78906
			CHANNELS 3 Zrotation Yrotation Xrotation
			JOINT RightKnee
			{
				OFFSET -2.28137 -6.26801 0.00000
				CHANNELS 3 Zrotation Yrotation Xrotation
				JOINT RightAnkle
				{
					OFFSET -2.28681 -6.28298 0.00000
					CHANNELS 3 Zrotation Yrotation Xrotation
					JOINT RightToe
					{
						OFFSET -0.15927 -0.43759 1.61103
						CHANNELS 3 Zrotation Yrotation Xrotation
						End Site
						{
							OFFSET -0.00000 -0.00000 0.84630
						}
					}
				}
			}
		}
	}
	JOINT lowerback
	{
		OFFSET 0 0 0
		CHANNELS 3 Zrotation Yrotation Xrotation
		JOINT Chest
		{
			OFFSET -0.04227 2.04338 -0.00225
			CHANNELS 3 Zrotation Yrotation Xrotation
			JOINT Chest2
			{
				OFFSET -0.02148 2.04482 -0.04273
				CHANNELS 3 Zrotation Yrotation Xrotation
				JOINT lowerneck
				{
					OFFSET 0 0 0
					CHANNELS 3 Zrotation Yrotation Xrotation
					JOINT Neck
					{
						OFFSET 0.09180 1.44629 0.19359
						CHANNELS 3 Zrotation Yrotation Xrotation
						JOINT Head
						{
							OFFSET 0.00887 1.40645 0.14750
							CHANNELS 3 Zrotation Yrotation Xrotation
							End Site
							{
								OFFSET -0.00669 1.50671 0.03707
							}
						}
					}
				}
				JOINT LeftCollar
				{
					OFFSET 0 0 0
					CHANNELS 3 Zrotation Yrotation Xrotation
					JOINT LeftShoulder
					{
						OFFSET 2.17674 1.86763 -0.06520
CHANNELS 3 Zrotation Xrotation Yrotation
						JOINT LeftElbow
						{
OFFSET 0 -4.657760 0.000000
CHANNELS 3 Zrotation Xrotation Yrotation
							JOINT LeftWrist
							{
OFFSET 0 -3.555390 0.000000
CHANNELS 3 Zrotation Xrotation Yrotation
								JOINT lhand
								{
									OFFSET 0 0 0
CHANNELS 3 Zrotation Xrotation Yrotation
									JOINT LFingers
									{
OFFSET 0 -0.707260 0.000000
CHANNELS 3 Zrotation Xrotation Yrotation
										End Site
										{
OFFSET 0 -0.570220 0.000000
										}
									}
								}
								JOINT LThumb
								{
OFFSET 0 0.000000 0.000000
CHANNELS 3 Zrotation Xrotation Yrotation
									End Site
									{
OFFSET 0 -0.578920 0.578920
									}
								}
							}
						}
					}
				}
				JOINT RightCollar
				{
					OFFSET 0 0 0
					CHANNELS 3 Zrotation Yrotation Xrotation
					JOINT RightShoulder
					{
						OFFSET -2.80694 1.55459 -0.32496
CHANNELS 3 Zrotation Xrotation Yrotation
						JOINT RightElbow
						{
OFFSET 0 -4.719250 -0.000000
CHANNELS 3 Zrotation Xrotation Yrotation
							JOINT RightWrist
							{
OFFSET 0 -3.569900 0.000000
CHANNELS 3 Zrotation Xrotation Yrotation
								JOINT rhand
								{
									OFFSET 0 0 0
CHANNELS 3 Zrotation Xrotation Yrotation
									JOINT RFingers
									{
OFFSET 0 -0.507760 0.000000
CHANNELS 3 Zrotation Xrotation Yrotation
										End Site
										{
OFFSET 0 -0.409370 0.000000
										}
									}
								}
								JOINT RThumb
								{
OFFSET 0 0.000000 0.000000
CHANNELS 3 Zrotation Xrotation Yrotation
									End Site
									{
OFFSET 0 -0.415620 0.415620
									}
								}
							}
						}
					}
				}
			}
		}
	}
}
MOTION
Frames: 11
Frame Time: 0.008333333333333333
9.479239 16.293722 20.065611 178.855519 -3.766819 -147.052588 0.000000 0.000000 0.000000 -10.585522 -25.615291 -33.805615 1.256903 7.105381 20.028677 0.535868 -0.382885 -13.702457 3.159571 -10.948860 -32.107810 0.000000 0.000000 0.000000 12.354354 21.898803 -33.176650 -1.122394 -6.728582 18.914126 -1.730525 -2.069964 -25.675472 -2.522401 9.878409 -28.584020 -5.663672 -2.383678 -25.673662 -0.333611 -2.232376 -2.926770 2.044073 -1.596925 11.216614 8.940163 -6.165058 -8.550672 -11.906477 -9.346904 0.055832 -5.225183 -5.064537 0.425195 0.000000 0.000000 0.000000 13.100107 3.916536 -37.722332 15.709347 -25.124899 3.521674 23.094789 -3.779370 12.319918 0.000000 0.000000 0.000000 -7.125000 0.000000 0.000000 -2.872617 16.634176 -1.932474 0.000000 0.000000 0.000000 -1.050986 8.236684 17.557096 -20.384336 -31.102599 -5.728564 -13.417403 6.640074 49.004896 0.000000 0.000000 0.000000 7.125000 0.000000 0.000000 51.893738 74.605223 -38.539842
9.483417 16.279509 20.086310 178.823220 -3.995079 -146.781257 0.000000 0.000000 0.000000 -10.194562 -26.052471 -35.081739 1.464704 7.643017 21.637626 0.580136 -0.585256 -14.198026 3.220643 -11.043751 -32.427723 0.000000 0.000000 0.000000 12.163693 21.952154 -34.183568 -1.259048 -7.110176 20.043382 -1.802456 -2.094345 -26.194821 -2.579544 9.980966 -28.915218 -5.735327 -2.462521 -25.641772 -0.189065 -2.288241 -2.731517 2.227247 -1.620835 11.439510 8.643602 -6.530346 -8.325701 -11.375989 -9.866058 -0.591257 -4.988822 -5.308250 0.183120 0.000000 0.000000 0.000000 12.958820 3.484157 -37.463341 15.636442 -25.025222 3.490755 24.087990 -3.966266 13.067855 0.000000 0.000000 0.000000 -7.125000 0.000000 0.000000 -2.228569 15.719043 -1.538638 0.000000 0.000000 0.000000 -1.332194 8.089479 17.541059 -20.552783 -31.302390 -5.815881 -13.603936 6.655286 49.001122 0.000000 0.000000 0.000000 7.125000 0.000000 0.000000 51.730413 74.674341 -38.470674
9.486533 16.258867 20.115286 178.843489 -4.068960 -146.363105 0.000000 0.000000 0.000000 -9.696257 -26.362572 -36.718313 1.711790 8.229265 23.417724 0.625935 -0.747657 -14.706651 3.443238 -11.376320 -33.564363 0.000000 0.000000 0.000000 11.905368 22.048848 -35.572386 -1.433350 -7.563971 21.400159 -1.882324 -1.917535 -26.678080 -2.620340 10.053413 -29.149888 -5.519030 -2.377250 -25.104943 -0.235571 -2.294891 -2.971622 2.071033 -1.608603 10.870284 8.714509 -6.591329 -8.296744 -11.306908 -9.957605 -0.673928 -4.974969 -5.350294 0.143982 0.000000 0.000000 0.000000 13.123298 3.745207 -37.322279 15.655164 -25.050841 3.498694 24.790261 -4.128276 13.405809 0.000000 0.000000 0.000000 -7.125000 0.000000 0.000000 -1.765444 15.274010 -1.238055 0.000000 0.000000 0.000000 -1.336386 8.610862 17.618551 -20.798651 -31.592072 -5.944315 -13.768192 6.725911 48.845656 0.000000 0.000000 0.000000 7.125000 0.000000 0.000000 51.106582 74.653154 -37.934899
9.488031 16.229124 20.153246 178.945088 -3.950438 -145.696349 0.000000 0.000000 0.000000 -8.985196 -26.566191 -38.825589 1.991383 8.838692 25.298428 0.674369 -0.886395 -15.234566 3.565080 -11.558020 -34.185806 0.000000 0.000000 0.000000 11.516828 22.292951 -37.501491 -1.661339 -8.112359 23.061255 -1.974738 -1.517488 -27.151236 -2.633165 10.076039 -29.223339 -5.255822 -2.219392 -24.924882 -0.290790 -2.199826 -3.172264 1.900024 -1.553786 10.525422 8.666692 -6.563761 -8.322284 -11.145614 -9.905285 -0.647168 -4.921018 -5.318925 0.170974 0.000000 0.000000 0.000000 13.304750 3.811742 -37.193305 15.642011 -25.032838 3.493146 24.796516 -3.997122 13.310641 0.000000 0.000000 0.000000 -7.125000 0.000000 0.000000 -1.755057 15.376787 -1.226653 0.000000 0.000000 0.000000 -1.350933 8.878941 17.714221 -20.977795 -31.802321 -6.038273 -14.112381 7.027941 49.093828 0.000000 0.000000 0.000000 7.125000 0.000000 0.000000 51.642206 74.914760 -38.633164
9.488918 16.195327 20.188808 179.001688 -3.884921 -145.138733 0.000000 0.000000 0.000000 -8.352318 -26.784319 -40.781838 2.281298 9.423024 27.132392 0.723318 -1.128474 -15.723360 3.500610 -11.463333 -33.860293 0.000000 0.000000 0.000000 11.145575 22.467206 -39.272673 -1.898844 -8.648443 24.704026 -2.073778 -1.150978 -27.672219 -2.656095 10.116004 -29.353483 -5.081210 -2.106157 -24.696588 -0.305591 -2.127728 -3.306775 1.818218 -1.512301 10.240567 8.515738 -6.539475 -8.320963 -10.927419 -9.849241 -0.648723 -4.831832 -5.284252 0.193455 0.000000 0.000000 0.000000 13.409470 3.792454 -37.044398 15.583128 -24.952207 3.468238 24.129984 -3.478187 12.831895 0.000000 0.000000 0.000000 -7.125000 0.000000 0.000000 -2.185882 15.969888 -1.496883 0.000000 0.000000 0.000000 -1.440301 8.994287 17.774817 -21.070014 -31.909938 -6.086898 -14.530745 7.400870 49.611703 0.000000 0.000000 0.000000 7.125000 0.000000 0.000000 53.011313 75.345205 -40.190188
9.491138 16.163175 20.212244 178.903429 -4.106490 -145.045848 0.000000 0.000000 0.000000 -8.081141 -27.109161 -41.997974 2.566995 9.955046 28.834612 0.769163 -1.552814 -16.114806 3.381187 -11.287853 -33.257081 0.000000 0.000000 0.000000 10.965315 22.344682 -40.208957 -2.100032 -9.068815 26.012682 -2.172342 -1.036358 -28.273919 -2.724313 10.234604 -29.739962 -4.985383 -2.096797 -23.753331 -0.328714 -2.201403 -3.511124 1.747792 -1.529020 9.512168 8.510789 -6.504996 -8.316036 -10.881582 -9.787482 -0.577150 -4.819163 -5.249786 0.222004 0.000000 0.000000 0.000000 13.514427 4.103670 -36.908659 15.540566 -24.893759 3.450289 23.171126 -2.752920 12.080470 0.000000 0.000000 0.000000 -7.125000 0.000000 0.000000 -2.808590 16.884071 -1.873214 0.000000 0.000000 0.000000 -1.498880 9.379366 17.751005 -21.123621 -31.972352 -6.115221 -14.689055 7.502515 49.772275 0.000000 0.000000 0.000000 7.125000 0.000000 0.000000 53.445704 75.485719 -40.695059
9.495716 16.125415 20.238665 178.883975 -4.317436 -144.908548 0.000000 0.000000 0.000000 -7.672374 -27.390039 -43.314786 2.877770 10.494467 30.593470 0.811478 -1.943886 -16.472917 3.424140 -11.351860 -33.475906 0.000000 0.000000 0.000000 10.840377 22.283171 -41.262366 -2.326510 -9.515433 27.421499 -2.280527 -0.807959 -28.884561 -2.787306 10.342566 -30.093408 -4.956734 -2.136426 -23.562801 -0.258643 -2.212417 -3.227278 1.807439 -1.517725 9.735042 8.136508 -6.497851 -8.360064 -10.420016 -9.744294 -0.662195 -4.621983 -5.218630 0.247602 0.000000 0.000000 0.000000 13.507926 3.594648 -36.727982 15.492700 -24.827974 3.430184 22.713121 -2.429833 11.488162 0.000000 0.000000 0.000000 -7.125000 0.000000 0.000000 -3.101451 17.565762 -2.023799 0.000000 0.000000 0.000000 -1.638683 8.914239 17.542544 -21.095502 -31.939596 -6.100420 -14.353398 7.174409 49.135094 0.000000 0.000000 0.000000 7.125000 0.000000 0.000000 51.559565 75.031749 -38.671199
9.503587 16.082248 20.271675 178.871279 -4.538519 -144.679170 0.000000 0.000000 0.000000 -7.202700 -27.561775 -44.828591 3.217350 11.035408 32.403350 0.850921 -2.392907 -16.785750 3.444624 -11.382246 -33.580183 0.000000 0.000000 0.000000 10.625812 22.319059 -42.512514 -2.585258 -9.988577 28.942246 -2.395639 -0.432237 -29.473070 -2.688868 10.173199 -29.539771 -4.821646 -2.098760 -22.599839 -0.280565 -2.271920 -3.520390 1.725760 -1.530252 8.894641 8.191356 -6.473221 -8.240551 -10.377187 -9.690462 -0.608956 -4.613604 -5.183250 0.248448 0.000000 0.000000 0.000000 13.723845 4.075410 -36.820156 15.594100 -24.967124 3.472843 22.977371 -2.699838 11.671579 0.000000 0.000000 0.000000 -7.125000 0.000000 0.000000 -2.924551 17.343579 -1.922146 0.000000 0.000000 0.000000 -1.680665 9.593315 17.767435 -21.400633 -32.292719 -6.262762 -13.946952 6.570749 48.624877 0.000000 0.000000 0.000000 7.125000 0.000000 0.000000 50.274460 74.600079 -37.200476
9.510209 16.034706 20.304060 178.817608 -4.808007 -144.500491 0.000000 0.000000 0.000000 -6.853730 -27.621838 -46.275378 3.565680 11.553778 34.177463 0.884321 -3.186464 -16.986910 3.093971 -10.836622 -31.740581 0.000000 0.000000 0.000000 10.390551 22.323278 -43.643141 -2.832408 -10.415259 30.335553 -2.501375 -0.179857 -30.035189 -2.580916 9.982789 -28.921685 -4.762884 -2.135128 -22.171705 -0.258665 -2.316074 -3.373473 1.715128 -1.534028 8.833250 7.975977 -6.449146 -8.319593 -10.041214 -9.636769 -0.633916 -4.482300 -5.149884 0.284227 0.000000 0.000000 0.000000 13.816006 3.843207 -36.661827 15.630912 -25.017588 3.488417 23.035078 -2.862335 12.074664 0.000000 0.000000 0.000000 -7.125000 0.000000 0.000000 -2.902592 16.904229 -1.935708 0.000000 0.000000 0.000000 -1.773067 9.618944 18.073165 -21.775144 -32.721124 -6.464273 -14.380214 6.817146 49.602399 0.000000 0.000000 0.000000 7.125000 0.000000 0.000000 53.166092 75.271192 -40.268111
9.512446 15.973117 20.333820 178.947534 -4.774199 -144.172254 0.000000 0.000000 0.000000 -6.351962 -27.446520 -47.911642 3.919279 12.046819 35.905241 0.920673 -3.878623 -17.245803 2.714275 -10.208970 -29.664044 0.000000 0.000000 0.000000 10.157686 22.554401 -45.058478 -3.117534 -10.877430 31.873584 -2.606034 0.170220 -30.552265 -2.528922 9.890223 -28.621993 -4.554760 -2.011843 -21.847258 -0.257198 -2.202985 -3.349418 1.642093 -1.464870 8.673819 7.773642 -6.441690 -8.356011 -9.749729 -9.598144 -0.605017 -4.365809 -5.122909 0.324836 0.000000 0.000000 0.000000 13.882610 3.741937 -36.453840 15.696922 -25.107934 3.516403 22.911731 -2.910715 12.331887 0.000000 0.000000 0.000000 -7.125000 0.000000 0.000000 -3.000151 16.639846 -2.018340 0.000000 0.000000 0.000000 -1.836363 9.708905 18.258703 -22.020410 -32.999887 -6.597057 -14.918949 7.286652 49.870403 0.000000 0.000000 0.000000 7.125000 0.000000 0.000000 53.600920 75.624246 -40.959508
9.516660 15.904792 20.363105 179.059184 -4.697579 -143.836940 0.000000 0.000000 0.000000 -5.856923 -27.296212 -49.537250 4.288172 12.529000 37.638223 0.962692 -4.482677 -17.583676 2.475034 -9.791485 -28.304877 0.000000 0.000000 0.000000 9.928151 22.739897 -46.529829 -3.433057 -11.360079 33.510227 -2.717440 0.524835 -31.098674 -2.513078 9.861601 -28.529773 -4.428918 -1.885871 -21.458245 -0.240580 -2.078969 -3.373987 1.638130 -1.393710 8.427444 7.594517 -6.439834 -8.346844 -9.362031 -9.565881 -0.607803 -4.390384 -5.095653 0.366566 0.000000 0.000000 0.000000 13.913042 3.673695 -36.304837 15.764940 -25.200934 3.545295 22.823766 -2.976863 12.437446 0.000000 0.000000 0.000000 -7.125000 0.000000 0.000000 -3.066248 16.535242 -2.069706 0.000000 0.000000 0.000000 -1.936637 9.829682 18.380619 -22.168614 -33.166934 -6.677895 -15.329189 7.593639 49.348957 0.000000 0.000000 0.000000 7.125000 0.000000 0.000000 51.511313 75.515193 -39.099486
